inDegrees=no
num_controls=7
num_derivatives=13
num_iterations=124
num_multipliers=7
num_parameters=0
num_slacks=7
num_states=26
objective=5.690753
objective_accelerations=0.826720
objective_balance=0.055555
objective_effort=0.348792
objective_height=4.366494
objective_ligament=0.093192
solver_duration=1390.285855
status=Solve_Succeeded
success=true
DataType=double
version=3
OpenSimVersion=4.4-2022-07-23-0e9fedc
endheader
time	/jointset/ground_pelvis/pelvis_tilt/value	/jointset/ground_pelvis/pelvis_tx/value	/jointset/ground_pelvis/pelvis_ty/value	/jointset/hip_l/hip_flexion_l/value	/jointset/hip_l/hip_adduction_l/value	/jointset/hip_l/hip_rotation_l/value	/jointset/back/lumbar_extension/value	/jointset/patellofemoral_l/patellar_flexion_l/value	/jointset/knee_l/knee_flexion_l/value	/jointset/knee_l/knee_adduction_l/value	/jointset/knee_l/knee_rotation_l/value	/jointset/ankle_l/ankle_angle_l/value	/jointset/subtalar_l/subtalar_angle_l/value	/jointset/ground_pelvis/pelvis_tilt/speed	/jointset/ground_pelvis/pelvis_tx/speed	/jointset/ground_pelvis/pelvis_ty/speed	/jointset/hip_l/hip_flexion_l/speed	/jointset/hip_l/hip_adduction_l/speed	/jointset/hip_l/hip_rotation_l/speed	/jointset/back/lumbar_extension/speed	/jointset/patellofemoral_l/patellar_flexion_l/speed	/jointset/knee_l/knee_flexion_l/speed	/jointset/knee_l/knee_adduction_l/speed	/jointset/knee_l/knee_rotation_l/speed	/jointset/ankle_l/ankle_angle_l/speed	/jointset/subtalar_l/subtalar_angle_l/speed	/forceset/tau_hip_flexion_l	/forceset/tau_hip_adduction_l	/forceset/tau_hip_rotation_l	/forceset/tau_knee_flexion_l	/forceset/tau_ankle_angle_l	/forceset/tau_subtalar_angle_l	/forceset/tau_lumbar_extension	lambda_cid13_p0	lambda_cid13_p1	lambda_cid13_p2	lambda_cid13_p3	lambda_cid13_p4	lambda_cid13_p5	lambda_cid14_p0	/jointset/ground_pelvis/pelvis_tilt/accel	/jointset/ground_pelvis/pelvis_tx/accel	/jointset/ground_pelvis/pelvis_ty/accel	/jointset/hip_l/hip_flexion_l/accel	/jointset/hip_l/hip_adduction_l/accel	/jointset/hip_l/hip_rotation_l/accel	/jointset/back/lumbar_extension/accel	/jointset/patellofemoral_l/patellar_flexion_l/accel	/jointset/knee_l/knee_flexion_l/accel	/jointset/knee_l/knee_adduction_l/accel	/jointset/knee_l/knee_rotation_l/accel	/jointset/ankle_l/ankle_angle_l/accel	/jointset/subtalar_l/subtalar_angle_l/accel	gamma_cid13_p0	gamma_cid13_p1	gamma_cid13_p2	gamma_cid13_p3	gamma_cid13_p4	gamma_cid13_p5	gamma_cid14_p0
0	-0.03947049210080886	0.06888948353992105	0.8959485588553469	0.1955292361009247	-0.3220304655808131	-0.4829273331073726	-0.137903700187828	0.07015350928390977	0.07015350928391206	-0.1745328784065222	-0.1174169883986976	-0.06701017130107029	0.003789014750021791	0	0	0	0	0	0	0	0	0	0	0	0	0	0.109191614088858	-0.07829675501325131	-0.02720678829763262	-0.2111168440336476	0.14691079062348	-0.02487195150707001	-0.05810312381640932	10.78464307054211	4.825946366502572	3.563750667223095	22.23965176653808	-513.3563932013277	-72.91171895261408	-39.90335003728144	-5.97855375115737	-2.697245156831489	-1.134455003528215	15.10731350506827	-2.045200995683699	3.287204459608119	-3.060160078724033	9.865447391383677	9.86544739138373	0.5965004500612188	-0.9348093112214568	0.9120895415332905	-1.752123733650722	-1.21773670588884e-08	1.148681193557902e-07	9.577800170303236e-08	5.162716425434724e-09	9.348802600806173e-10	8.29487645350074e-09	-4.294206257574658e-09
0.01	-0.03975737131580873	0.06875617330955594	0.8958933771453536	0.1962617434774555	-0.3221313444760394	-0.482762690103631	-0.1380637860928229	0.07063254236373326	0.07063254236370031	-0.1745069731746759	-0.1174580167220551	-0.06696871435987163	0.003700633483165478	-0.05710997670040806	-0.02655538706019464	-0.01100317177028516	0.1458648184368756	-0.02007692247153622	0.03280323922210724	-0.03176058814959911	0.09538196040337195	0.09538196040337243	0.005165114746150621	-0.008148883470070844	0.008239696356789636	-0.01759606726481511	0.1043467256104446	-0.08067403176626163	-0.02630739885298245	-0.2054598840373098	0.1378756227953846	-0.01865737341938796	-0.05396803717589702	8.108047719461773	2.671307420171957	3.820791316815342	22.76898071109275	-514.0599330768823	-77.40752211137917	-39.91327412678594	-5.537349250509629	-2.618685595997607	-1.078272542555528	14.23055785984099	-1.974132228681972	3.258068788045106	-3.195519255505412	9.310872889933004	9.31087288993308	0.4741551077936547	-0.7464014371935124	0.7721592707535967	-1.751349681132808	-4.482684954838896e-08	1.485443860164369e-07	1.658962541138462e-07	3.494692802159792e-08	-2.258272458942959e-07	-1.654132927560958e-08	-9.79648079405481e-09
0.02	-0.04060737622202384	0.06836050918551226	0.8957291588619021	0.1984337974077328	-0.3224300314671398	-0.4822737776807696	-0.1385337800938012	0.07205265555258146	0.07205265555258351	-0.1744298891711914	-0.117578828594641	-0.06684641053750519	0.00343869125201375	-0.1126251382418969	-0.05247077873570939	-0.02180731469163664	0.2879093107475055	-0.03956161917481494	0.06485388382553371	-0.06198161919629813	0.1882160218115068	0.1882160218115074	0.01023575432836703	-0.01595670983188161	0.01616937623365201	-0.03471219285906656	0.09950183713219356	-0.08305130851925556	-0.02540800940790525	-0.1998029240409351	0.1288404549673296	-0.01244279533167113	-0.04983295053530579	5.493964829242187	0.5054757668475243	4.07989934692552	23.20760069099055	-513.8090418147049	-81.74754494005305	-39.9424754776015	-5.659590719373549	-2.569246079895457	-1.094649233741484	14.34324827981909	-1.926755842032251	3.136685535871963	-2.752248658143965	9.35586759233626	9.355867592336232	0.5776054172742479	-0.8665978895694342	0.8500862455478849	-1.656135399538026	-7.747633203788953e-08	1.822206526770835e-07	2.3601450652466e-07	6.473113961776113e-08	-4.525893720486724e-07	-4.13775350047199e-08	-1.529875533053496e-08
0.03	-0.04200527535145148	0.067709180660512	0.8954575560819547	0.2020080740889942	-0.322920391862169	-0.4814683978467417	-0.1392972325001456	0.07438889255139627	0.07438889255141101	-0.1743021525704161	-0.117776366353501	-0.06664582491329089	0.003008513558158754	-0.1666800811987783	-0.07765577069886581	-0.03250331620364522	0.426265160403131	-0.05839496973116176	0.09608619222098333	-0.0904301335561043	0.2785936173420469	0.2785936173420486	0.01529931848788663	-0.02348934292774009	0.02392676610590591	-0.05120823687168007	0.09450846603070041	-0.07842403233912972	-0.02471891739146393	-0.1957426165417614	0.1260458718347978	-0.01326339495469748	-0.04560793003700787	4.638139012144871	0.9193457256646376	4.119420443088958	22.93535278239351	-513.3829363169898	-79.93565845344418	-39.989786468232	-5.237265254424728	-2.472239352972429	-1.055678279886275	13.4796062515104	-1.844335574005449	3.096088352427977	-2.849343547312867	8.81304452400096	8.813044524001301	0.4689472478681846	-0.6873418726721744	0.7354206147112783	-1.629128168335568	-1.01707948423468e-07	2.1015273840325e-07	2.820161078674132e-07	8.948271797777463e-08	-6.187042984196008e-07	-5.954587193228246e-08	-1.783629303436258e-08
0.04	-0.04393548774456864	0.06681017949619124	0.895079272752896	0.206945479855422	-0.323595627945071	-0.480354777956542	-0.140336808194571	0.07761577330363141	0.07761577330363259	-0.1741241372614944	-0.1180473796139357	-0.06636829433902418	0.00241681757093504	-0.2190877909787985	-0.1020053065998072	-0.04314342451388763	0.5605351277818305	-0.0765367567502848	0.1265018950582914	-0.1172062768124654	0.3663447724961075	0.3663447724961116	0.0202914959504927	-0.03065181014672145	0.03155836624404454	-0.06701585153279739	0.08951509492911436	-0.07379675615903027	-0.02402982537506119	-0.1916823090426945	0.1232512887022033	-0.01408399457778569	-0.04138290953871365	3.838906737331954	1.324170947919328	4.159396514499178	22.57869149797991	-512.1016666467023	-77.97682592868671	-40.05374689441398	-5.33014408400133	-2.402154867452383	-1.08347059338825	13.52607182443383	-1.788443134587529	2.973364424243662	-2.417774437454909	8.830579517040388	8.830579517040585	0.5633280778914799	-0.7925647141940038	0.8249282987248896	-1.518449529238785	-1.257660005594811e-07	2.37966387409118e-07	3.275204586726806e-07	1.141305307040531e-07	-7.835687670630353e-07	-7.757672702888529e-08	-2.031270214370253e-08
0.05	-0.04638269533173504	0.06567197970107948	0.8945945186937345	0.2132069598530571	-0.3244488028298865	-0.4789411443364823	-0.1416349203265445	0.08170808969301185	0.08170808969305453	-0.1738962361362301	-0.1183885568617188	-0.06601453946624326	0.001670805185082455	-0.2700915371836569	-0.1254783619137197	-0.05381918514203662	0.6910807643034295	-0.09397942092295042	0.156090536871784	-0.1421565393208859	0.4516822482513363	0.4516822482513304	0.02526336498854101	-0.03751579681364944	0.03918663556169055	-0.0820599353123115	0.084875611367317	-0.07219896601594603	-0.02352412566623525	-0.1896765526726209	0.1221213553912593	-0.01299258122916221	-0.03749421533263244	3.653460873907038	0.889632502478203	4.220687020712456	21.57544227414086	-510.7217636873693	-77.79714013848454	-40.13253551087971	-4.946171851074994	-2.296414261575497	-1.061556517063877	12.71677066191738	-1.704402046470546	2.931426182777155	-2.49471061819156	8.319897117495143	8.319897117493657	0.4603821942818428	-0.6230977587538543	0.730882144762639	-1.478458664889524	-1.421839824621334e-07	2.450179738929081e-07	3.573558596487499e-07	1.311056562359173e-07	-8.871292131996245e-07	-9.445239210125941e-08	-2.25449010819495e-08
0.06	-0.04933207677342251	0.06430374267318598	0.8940026214843846	0.2207534884350665	-0.3254728491539962	-0.4772356618737004	-0.1431747467757365	0.08664069394252416	0.08664069394252544	-0.17361936314502	-0.1187963303992653	-0.06558468072098977	0.0007781377889183075	-0.3195225618823689	-0.1480127531561558	-0.06457205455158793	0.8175448446608286	-0.1107110446101891	0.1848716636002835	-0.1655491402555427	0.5344023445158045	0.5344023445157878	0.03008586912739569	-0.0439710681130462	0.0467791407384639	-0.09634685359509859	0.08023612780524608	-0.07060117587288771	-0.02301842595785638	-0.1876707963026417	0.1209914220802462	-0.01190116788059889	-0.0336055211267072	3.517036572307129	0.4468841277186431	4.282860105450267	20.49720239581101	-508.5929188765569	-77.48559581308683	-40.22412608301358	-5.015599782772118	-2.214422053157039	-1.098892349668716	12.70976059159381	-1.646235037502186	2.811861407245048	-2.106242122702168	8.307103618888256	8.30710361888829	0.5334550980527011	-0.710821640687748	0.8177754705504272	-1.367016429893369	-1.582802771970652e-07	2.511953682705053e-07	3.86531515368853e-07	1.477577212543324e-07	-9.881084373359253e-07	-1.11279417593666e-07	-2.476681748667678e-08
0.07000000000000001	-0.05276888259593272	0.06271471004268063	0.8933025131989968	0.2295462410523553	-0.3266606423841695	-0.4752466123752454	-0.1449397499380637	0.09238857693603995	0.09238857693603739	-0.1732946327704384	-0.1192672431229626	-0.0650788101911107	-0.0002534512490159265	-0.3675680600860149	-0.1696463437778438	-0.07547780498126309	0.9403370974633132	-0.1267226917003143	0.2128033960271302	-0.1872037135513894	0.6147386015840817	0.614738601584077	0.03483119869674311	-0.05014463828274405	0.05437304637627156	-0.1098466763527827	0.07482054810778038	-0.0679436785620875	-0.02237587611893793	-0.185123035726478	0.1192004408787066	-0.01120620768729893	-0.02923886106654932	3.149198168626137	0.1913146879597645	4.34434109204284	19.73653818206127	-506.4694268906047	-76.68915741724619	-40.32623329533856	-4.658452915059759	-2.11568343802303	-1.090845603584585	11.96364519991534	-1.559941034963274	2.763550415348574	-2.157898134097025	7.83154384053441	7.83154384053624	0.4407994167157693	-0.5605482123159384	0.7269107642015852	-1.32290627122304	-1.641978276179493e-07	2.48388436340666e-07	3.958234917955394e-07	1.560060550686967e-07	-1.02328181361554e-06	-1.179894291672596e-07	-2.524726509898327e-08
0.08	-0.05667802901566461	0.06091377033168889	0.8924924615665187	0.2395468537127276	-0.3280048143832822	-0.4729823013015347	-0.1469138654735684	0.09892675391818885	0.09892675391818967	-0.1729233035941093	-0.1197978762497955	-0.0644976580740927	-0.001416326729030478	-0.413990681325622	-0.1903941692534358	-0.08656072396963115	1.059116853279378	-0.1419867983982721	0.2399239786517411	-0.2073716148900794	0.6924611422418385	0.692461142241846	0.03940562947969428	-0.05591514874064726	0.06183545816630718	-0.122604142011149	0.06940496841027832	-0.06528618125125789	-0.02173332628002895	-0.1825752751502852	0.1174094596771939	-0.01051124749395278	-0.02487220100646995	2.823563701117727	-0.07045445691267083	4.405451498338146	18.91026666063565	-503.7007880806885	-75.77562371616008	-40.43644259804032	-4.691024389964404	-2.037269023937747	-1.134326061407291	11.90726119430973	-1.496726959068743	2.649631446797858	-1.808907731270817	7.784360336784191	7.784360336784226	0.4992753407734027	-0.6302096983288046	0.7914767009961037	-1.21854501002981	-1.694586848572819e-07	2.450018704555081e-07	4.038326502032957e-07	1.637122126763481e-07	-1.054209651323756e-06	-1.240467301654458e-07	-2.56153598859723e-08
